# xmcd
#
# Track frame offsets:
#	150
#	12569
#	24959
#	34817
#	46280
#	60880
#	74588
#	88168
#	102065
#	115562
#	130158
#	139433
#	152852
#	163295
#	173978
#	186014
#	199920
#	209168
#	220678
#	237426
#
# Disc length: 3297
#
# Revision: 2
# Processed by: cddbd v1.5.1PL0 Copyright (c) Steve Scherf et al.
# Submitted via: FreeRIP 2.35 
# Normalized: r1:DSETVAR1
#
DISCID=250cdf14
DTITLE=Various Artist - Country and Western Music 40 Classic Hits #CD1
DYEAR=1998
DGENRE=country
TTITLE0=Alabama - Loving you is killing me
TTITLE1=Lynn Anderson - Stand by your man
TTITLE2=Jonny Cash - Ballad of a teenage queen
TTITLE3=Pasty Cline - The heart you break
TTITLE4=Vernon Dalhart - The runaway train
TTITLE5=Jimmy Dean - Big bad John
TTITLE6=Roy Drusky - Cold cold heart
TTITLE7=Barbara Fairchild - Teddy bear song
TTITLE8=Donna Fargo - Daddy
TTITLE9=Freddy Fender - Wasted days and nights
TTITLE10=Mickey Gilley - Suzie Q
TTITLE11=Freddie Hart - Sure thing
TTITLE12=Ferlin Husky - Gone
TTITLE13=Stonewall Jackson - Waterloo
TTITLE14=Waylon Jennings - Don't think twice it's alright
TTITLE15=Kingston Trio - Where have all the flowers gone?
TTITLE16=Frankie Lane - Rawhide
TTITLE17=Jonny Lee - Ramblin' rose
TTITLE18=Charlie Louvin - 10 years, 3 kids, 2 loves too late
TTITLE19=Bill Monroe - Blue moon of kentucky
EXTD=
EXTT0=
EXTT1=
EXTT2=
EXTT3=
EXTT4=
EXTT5=
EXTT6=
EXTT7=
EXTT8=
EXTT9=
EXTT10=
EXTT11=
EXTT12=
EXTT13=
EXTT14=
EXTT15=
EXTT16=
EXTT17=
EXTT18=
EXTT19=
PLAYORDER=
